<svg width="31" height="31" viewBox="0 0 31 31" fill="none" xmlns="http://www.w3.org/2000/svg">
<circle cx="15.25" cy="15.5" r="14.5" stroke="#FADA54"/>
<path d="M17.875 9C20.2909 9 22.25 10.9591 22.25 13.375V18.625C22.25 21.0409 20.2909 23 17.875 23H12.625C10.2091 23 8.25 21.0409 8.25 18.625V13.375C8.25 10.9591 10.2091 9 12.625 9H17.875ZM12.625 10.3125C10.9362 10.3125 9.5625 11.6862 9.5625 13.375V18.625C9.5625 20.3138 10.9363 21.6875 12.625 21.6875H17.875C19.5638 21.6875 20.9375 20.3138 20.9375 18.625V13.375C20.9375 11.6863 19.5638 10.3125 17.875 10.3125H12.625Z" fill="#FADA54"/>
<path d="M15.25 12.5C17.1829 12.5 18.75 14.0671 18.75 16C18.75 17.9329 17.1829 19.5 15.25 19.5C13.3171 19.5 11.75 17.9329 11.75 16C11.75 14.0671 13.3171 12.5 15.25 12.5ZM15.25 13.8125C14.0443 13.8125 13.0625 14.7934 13.0625 16C13.0625 17.2057 14.0443 18.1875 15.25 18.1875C16.4557 18.1875 17.4375 17.2057 17.4375 16C17.4375 14.7934 16.4557 13.8125 15.25 13.8125Z" fill="#FADA54"/>
<circle cx="19.0133" cy="12.2379" r="0.466375" fill="#FADA54"/>
</svg>
