<svg width="21" height="21" viewBox="0 0 21 21" fill="none" xmlns="http://www.w3.org/2000/svg">
<path fill-rule="evenodd" clip-rule="evenodd" d="M17.579 7.04952C17.579 6.5074 17.3642 5.98735 16.9817 5.60323C16.5991 5.21911 16.0799 5.0022 15.5378 5H5.29853C4.75496 5 4.23366 5.21593 3.8493 5.60029C3.46494 5.98465 3.249 6.50596 3.249 7.04952C3.249 7.12451 3.249 7.19949 3.249 7.2828C3.249 7.7077 3.249 8.20759 3.249 8.79912V12.2067C3.23357 12.8212 3.25583 13.4361 3.31566 14.0479C3.35077 14.5331 3.55066 14.9916 3.88219 15.3476C4.24173 15.68 4.70223 15.8824 5.19022 15.9225C5.808 15.9757 6.42822 15.9952 7.04812 15.9808H13.7882C14.4134 16.001 15.0392 15.9871 15.6628 15.9391C16.1488 15.9011 16.6073 15.6983 16.9625 15.3643C17.2914 15.0016 17.4856 14.5368 17.5124 14.0479C17.5729 13.4306 17.5951 12.8101 17.579 12.19V8.79912C17.579 8.20759 17.579 7.7077 17.579 7.2828C17.554 7.19949 17.579 7.12451 17.579 7.04952ZM13.7466 5.99977C14.3359 5.98707 14.9256 6.00653 15.5128 6.05809C15.7789 6.07059 16.0336 6.17011 16.2376 6.34136C16.4123 6.54666 16.5121 6.80512 16.5209 7.07452C16.5255 7.14943 16.5255 7.22455 16.5209 7.29947C16.4844 7.44527 16.4172 7.58162 16.3238 7.69942C16.2304 7.81722 16.113 7.91377 15.9794 7.98264L10.9139 10.4821C10.7525 10.564 10.5741 10.6067 10.3932 10.6067C10.2122 10.6067 10.0338 10.564 9.87246 10.4821L4.80698 7.98264C4.67149 7.91515 4.55219 7.81914 4.45728 7.70122C4.36237 7.5833 4.29409 7.44625 4.25711 7.29947V7.07452C4.26588 6.80512 4.36573 6.54666 4.54037 6.34136C4.74763 6.17002 5.00492 6.07061 5.27353 6.05809C5.85799 6.00632 6.44486 5.98685 7.03146 5.99977H13.7466ZM16.5792 12.165C16.5879 12.7549 16.5601 13.3448 16.4959 13.9313C16.4893 14.1986 16.3891 14.4551 16.2127 14.6561C16.0121 14.8343 15.7559 14.9374 15.4878 14.9477C14.9004 14.9956 14.3108 15.0123 13.7216 14.9977H7.05645C6.47001 15.0124 5.88319 14.9957 5.29853 14.9477C5.02812 14.9366 4.76954 14.8337 4.56537 14.6561C4.38895 14.4551 4.2887 14.1986 4.2821 13.9313C4.22628 13.3443 4.2068 12.7544 4.22378 12.165V8.79078L4.35708 8.8741L9.42257 11.3735C9.72199 11.5257 10.0531 11.605 10.389 11.605C10.7249 11.605 11.056 11.5257 11.3555 11.3735L16.4293 8.8741L16.5542 8.79078V12.165H16.5792Z" fill="#FADA54"/>
</svg>
