<svg width="21" height="21" viewBox="0 0 21 21" fill="none" xmlns="http://www.w3.org/2000/svg">
<path fill-rule="evenodd" clip-rule="evenodd" d="M5.13749 3.99316C5.10346 3.99316 5.06977 3.99989 5.03834 4.01295C5.00692 4.02601 4.97839 4.04514 4.95439 4.06927C4.26462 4.76081 3.84641 5.67791 3.77691 6.65217C3.70742 7.62643 3.9909 8.59316 4.57553 9.37561L5.55893 10.6924C6.61657 12.1098 7.8678 13.3721 9.27584 14.4422L10.5908 15.4243C11.3733 16.0089 12.3401 16.2925 13.3144 16.223C14.2886 16.1535 15.2053 15.7356 15.8969 15.0459C15.921 15.0219 15.9405 14.993 15.9536 14.9615C15.9667 14.9301 15.9734 14.8964 15.9734 14.8624C15.9734 14.8284 15.9667 14.7947 15.9536 14.7632C15.9405 14.7318 15.9214 14.7033 15.8973 14.6793L15.8958 14.6778L13.6899 12.4636C13.6284 12.4041 13.5463 12.3705 13.4606 12.3699C13.3757 12.3693 13.2938 12.4011 13.2316 12.4587L12.4068 13.2835C12.2669 13.4279 12.0839 13.5233 11.8853 13.5553C11.6869 13.5873 11.4836 13.5544 11.3055 13.4617C9.23275 12.4271 7.55275 10.7463 6.51917 8.67296L6.51588 8.66637C6.4312 8.49003 6.40256 8.29198 6.43371 8.09888C6.46486 7.90577 6.55435 7.72681 6.69018 7.58604L6.69638 7.57961L7.52872 6.74739C7.59054 6.68498 7.62565 6.60026 7.62565 6.51239C7.62565 6.42452 7.59095 6.34021 7.52913 6.2778L5.32143 4.07011L5.32059 4.06927C5.29659 4.04514 5.26805 4.02601 5.23663 4.01295C5.20521 3.99989 5.17151 3.99316 5.13749 3.99316ZM4.65456 3.08953C4.80761 3.02591 4.97173 2.99316 5.13749 2.99316C5.30324 2.99316 5.46736 3.02591 5.62042 3.08953C5.77328 3.15306 5.9121 3.24613 6.02893 3.36339L8.23793 5.57239C8.48626 5.82221 8.62565 6.16014 8.62565 6.51239C8.62565 6.86463 8.48626 7.20257 8.23793 7.45239L8.23688 7.45344L7.43061 8.25971C8.3639 10.1142 9.86902 11.6193 11.7235 12.5526L12.534 11.7421L12.5384 11.7379C12.7888 11.4994 13.122 11.3674 13.4678 11.3699C13.8136 11.3724 14.1449 11.5091 14.3917 11.7512L14.3959 11.7553L16.6027 13.9705L16.6037 13.9715C16.7207 14.0882 16.8136 14.2268 16.877 14.3795C16.9406 14.5325 16.9734 14.6966 16.9734 14.8624C16.9734 15.0281 16.9406 15.1923 16.877 15.3453C16.8135 15.4982 16.7204 15.6371 16.6031 15.7539C15.7415 16.6133 14.5994 17.1338 13.3855 17.2204C12.1717 17.307 10.9672 16.9538 9.99238 16.2254L8.67249 15.2397C7.1894 14.1128 5.87165 12.7836 4.75771 11.2907L3.77445 9.97416C3.04606 8.99931 2.69287 7.79486 2.77945 6.58102C2.86602 5.36727 3.38653 4.22522 4.2458 3.36364C4.36268 3.24625 4.50159 3.1531 4.65456 3.08953Z" fill="#FADA54"/>
</svg>
