<svg width="21" height="21" viewBox="0 0 21 21" fill="none" xmlns="http://www.w3.org/2000/svg">
<path d="M9.34995 15.4418C9.52362 15.5324 9.71659 15.5797 9.91245 15.5797C10.1083 15.5797 10.3013 15.5324 10.4749 15.4418C11.7024 14.8035 12.8263 13.9831 13.8083 13.0085C14.5478 12.3239 15.1437 11.4991 15.5615 10.5821C15.9792 9.66502 16.2104 8.67406 16.2416 7.66683C16.2416 5.98713 15.5744 4.37622 14.3866 3.18849C13.1989 2.00076 11.588 1.3335 9.90828 1.3335C8.22858 1.3335 6.61767 2.00076 5.42994 3.18849C4.24221 4.37622 3.57495 5.98713 3.57495 7.66683C3.60616 8.67406 3.83736 9.66502 4.25511 10.5821C4.67285 11.4991 5.26881 12.3239 6.00828 13.0085C6.99277 13.9839 8.11947 14.8043 9.34995 15.4418ZM9.91661 2.3335C11.3311 2.3335 12.6877 2.8954 13.6879 3.89559C14.688 4.89579 15.2499 6.25234 15.2499 7.66683C15.2159 8.54338 15.0092 9.40459 14.6417 10.2011C14.2742 10.9976 13.7531 11.7138 13.1083 12.3085C12.2064 13.2065 11.1756 13.9648 10.0499 14.5585C10.0191 14.5746 9.98476 14.583 9.94995 14.583C9.91513 14.583 9.88083 14.5746 9.84995 14.5585C8.69649 13.9733 7.63972 13.2145 6.71661 12.3085C6.07181 11.7138 5.55072 10.9976 5.18321 10.2011C4.8157 9.40459 4.609 8.54338 4.57495 7.66683C4.57385 6.96544 4.71132 6.27073 4.97948 5.62262C5.24763 4.97451 5.64119 4.38576 6.13754 3.89019C6.63389 3.39461 7.22325 3.00198 7.87178 2.73483C8.52031 2.46769 9.21522 2.3313 9.91661 2.3335Z" fill="#FADA54"/>
<path d="M9.91662 10.6665C10.7123 10.6665 11.4753 10.3504 12.0379 9.78782C12.6006 9.22521 12.9166 8.46215 12.9166 7.66651C12.9166 6.87086 12.6006 6.10779 12.0379 5.54518C11.4753 4.98258 10.7123 4.6665 9.91662 4.6665C9.12097 4.6665 8.35792 4.98258 7.79531 5.54518C7.2327 6.10779 6.91663 6.87086 6.91663 7.66651C6.91663 8.46215 7.2327 9.22521 7.79531 9.78782C8.35792 10.3504 9.12097 10.6665 9.91662 10.6665ZM9.91662 5.6665C10.4471 5.6665 10.9558 5.87722 11.3308 6.25229C11.7059 6.62737 11.9166 7.13607 11.9166 7.66651C11.9144 8.19626 11.703 8.7037 11.3284 9.0783C10.9538 9.45289 10.4464 9.66431 9.91662 9.6665C9.38619 9.6665 8.87749 9.45579 8.50241 9.08072C8.12734 8.70565 7.91663 8.19694 7.91663 7.66651C7.91553 7.40355 7.9665 7.14298 8.06662 6.89983C8.16674 6.65669 8.31402 6.43577 8.49995 6.24983C8.68589 6.06389 8.90681 5.91662 9.14996 5.8165C9.39311 5.71638 9.65367 5.6654 9.91662 5.6665Z" fill="#FADA54"/>
<path d="M16.6583 14.3168C16.6014 14.2839 16.5386 14.2626 16.4734 14.254C16.4083 14.2454 16.3421 14.2498 16.2786 14.2668C16.2152 14.2838 16.1557 14.3132 16.1036 14.3532C16.0515 14.3933 16.0078 14.4432 15.975 14.5001C15.9108 14.6155 15.894 14.7514 15.9282 14.8789C15.9625 15.0064 16.045 15.1157 16.1583 15.1834C16.6416 15.4584 16.9166 15.7584 16.9166 16.0168C16.9166 16.2751 16.6416 16.5584 16.1583 16.8501C15.3465 17.2624 14.4746 17.5436 13.575 17.6834C11.1546 18.1085 8.67866 18.1085 6.25829 17.6834C5.35634 17.5421 4.48195 17.2609 3.66662 16.8501C3.19162 16.5751 2.91663 16.2751 2.91663 16.0168C2.91663 15.7584 3.19162 15.4751 3.66662 15.1834C3.72356 15.1506 3.77347 15.1069 3.8135 15.0548C3.85353 15.0027 3.8829 14.9432 3.89993 14.8798C3.91696 14.8163 3.9213 14.7501 3.91273 14.685C3.90416 14.6198 3.88283 14.557 3.84996 14.5001C3.81798 14.4423 3.77469 14.3916 3.72268 14.3509C3.67066 14.3103 3.61099 14.2805 3.54722 14.2634C3.48344 14.2463 3.41687 14.2422 3.35149 14.2514C3.2861 14.2605 3.22323 14.2828 3.16663 14.3168C2.13329 14.9168 1.91663 15.5584 1.91663 15.9834C1.91663 16.4084 2.13329 17.0668 3.16663 17.6501C4.07776 18.1267 5.05984 18.4531 6.07496 18.6168C7.34178 18.8532 8.62795 18.9703 9.91662 18.9668C11.2053 18.9699 12.4914 18.8528 13.7583 18.6168C14.7711 18.4545 15.7507 18.128 16.6583 17.6501C17.7 17.0501 17.9166 16.4001 17.9166 15.9834C17.9166 15.5668 17.7 14.9084 16.6583 14.3168Z" fill="#FADA54"/>
</svg>
