<svg width="31" height="31" viewBox="0 0 31 31" fill="none" xmlns="http://www.w3.org/2000/svg">
<circle cx="15.25" cy="15.5" r="14.5" stroke="#FADA54"/>
<path d="M22.25 11.3466C21.7294 11.575 21.1746 11.7264 20.5963 11.7999C21.1912 11.4446 21.6454 10.8864 21.8589 10.2135C21.3041 10.5443 20.6916 10.7779 20.0389 10.9082C19.5121 10.3474 18.7614 10 17.9424 10C16.3534 10 15.0741 11.2897 15.0741 12.8709C15.0741 13.0984 15.0934 13.3171 15.1406 13.5254C12.7545 13.409 10.6431 12.2654 9.22475 10.5232C8.97712 10.9529 8.83187 11.4446 8.83187 11.974C8.83187 12.968 9.34375 13.8491 10.1067 14.3592C9.64562 14.3505 9.19325 14.2166 8.81 14.0058C8.81 14.0145 8.81 14.0259 8.81 14.0373C8.81 15.432 9.80488 16.5905 11.1095 16.8574C10.8759 16.9212 10.6212 16.9519 10.357 16.9519C10.1733 16.9519 9.98775 16.9414 9.81362 16.9029C10.1855 18.0395 11.2408 18.8751 12.4955 18.9023C11.519 19.6661 10.2791 20.1264 8.93687 20.1264C8.7015 20.1264 8.47575 20.1159 8.25 20.087C9.52137 20.9069 11.0281 21.375 12.653 21.375C17.9345 21.375 20.822 17 20.822 13.2077C20.822 13.0809 20.8176 12.9584 20.8115 12.8367C21.3811 12.4325 21.8597 11.9276 22.25 11.3466Z" fill="#FADA54"/>
</svg>
